<svg xmlns="http://www.w3.org/2000/svg" viewBox="0 0 1600 900" width="1600" height="900" role="img" aria-label="Location Intelligence">
  <defs>
    <linearGradient id="bg" x1="0" y1="0" x2="1" y2="1">
      <stop offset="0" stop-color="#0C1830"/><stop offset="1" stop-color="#173059"/>
    </linearGradient>
    <linearGradient id="fade" x1="0" y1="0" x2="0" y2="1">
      <stop offset="0" stop-color="#060B18" stop-opacity="0"/>
      <stop offset="1" stop-color="#060B18" stop-opacity=".85"/>
    </linearGradient>
    <pattern id="grid" width="80" height="80" patternUnits="userSpaceOnUse">
      <path d="M80 0H0v80" fill="none" stroke="#FBFAF7" stroke-opacity=".07" stroke-width="1"/>
    </pattern>
  </defs>
  <rect width="1600" height="900" fill="url(#bg)"/>
  <rect width="1600" height="900" fill="url(#grid)"/>
  <circle cx="1320" cy="180" r="230" fill="#C9A227" opacity=".14"/>
  <circle cx="240" cy="760" r="300" fill="#35C5D8" opacity=".10"/>
  <g fill="#060B18" opacity=".55"><rect x="0" y="716" width="86" height="184" rx="3"/><rect x="96" y="790" width="74" height="110" rx="3"/><rect x="180" y="748" width="64" height="152" rx="3"/><rect x="254" y="616" width="87" height="284" rx="3"/><rect x="351" y="637" width="47" height="263" rx="3"/><rect x="408" y="580" width="92" height="320" rx="3"/><rect x="510" y="776" width="98" height="124" rx="3"/><rect x="618" y="631" width="110" height="269" rx="3"/><rect x="738" y="554" width="106" height="346" rx="3"/><rect x="854" y="668" width="64" height="232" rx="3"/><rect x="928" y="611" width="58" height="289" rx="3"/><rect x="996" y="493" width="66" height="407" rx="3"/><rect x="1072" y="566" width="109" height="334" rx="3"/><rect x="1191" y="636" width="80" height="264" rx="3"/><rect x="1281" y="498" width="48" height="402" rx="3"/><rect x="1339" y="789" width="53" height="111" rx="3"/><rect x="1402" y="564" width="94" height="336" rx="3"/><rect x="1506" y="714" width="106" height="186" rx="3"/></g>
  <rect width="1600" height="900" fill="url(#fade)"/>
  <rect x="96" y="700" width="72" height="6" rx="3" fill="#C9A227"/>
  <text x="96" y="782" font-family="Georgia, 'Times New Roman', serif" font-size="54" fill="#FBFAF7">Location Intelligence</text>
  <text x="96" y="826" font-family="Segoe UI, Tahoma, sans-serif" font-size="24" fill="#A9B3C7">FiatKopong &#183; Real Estate Intelligence</text>
</svg>
